<svg width="12" height="16" viewBox="0 0 12 16" fill="none" xmlns="http://www.w3.org/2000/svg">
<path fill-rule="evenodd" clip-rule="evenodd" d="M6 0C6.55228 0 7 0.447715 7 1V15C7 15.5523 6.55228 16 6 16C5.44772 16 5 15.5523 5 15V1C5 0.447715 5.44772 0 6 0ZM1 7C1.55228 7 2 7.44772 2 8L2 15C2 15.5523 1.55229 16 1 16C0.447715 16 0 15.5523 0 15V8C0 7.44772 0.447715 7 1 7ZM12 6C12 5.44772 11.5523 5 11 5C10.4477 5 10 5.44772 10 6V15C10 15.5523 10.4477 16 11 16C11.5523 16 12 15.5523 12 15V6Z" fill="#C9C9CF"/>
</svg>
