<svg width="18" height="19" viewBox="0 0 18 19" fill="none" xmlns="http://www.w3.org/2000/svg">
<path fill-rule="evenodd" clip-rule="evenodd" d="M3 8.5C3 4.91015 5.91015 2 9.5 2C13.0899 2 16 4.91015 16 8.5C16 12.0899 13.0899 15 9.5 15C5.91015 15 3 12.0899 3 8.5ZM9.5 0C4.80558 0 1 3.80558 1 8.5C1 10.6524 1.79999 12.6179 3.11886 14.1154C3.03248 14.161 2.95137 14.2202 2.87868 14.2929L0.292893 16.8787C-0.0976311 17.2692 -0.0976311 17.9024 0.292893 18.2929C0.683417 18.6834 1.31658 18.6834 1.70711 18.2929L4.29289 15.7071C4.38897 15.611 4.46141 15.5003 4.51022 15.382C5.91149 16.3998 7.63565 17 9.5 17C14.1944 17 18 13.1944 18 8.5C18 3.80558 14.1944 0 9.5 0Z" fill="#C9C9CF"/>
</svg>
